<svg width="315" height="249" viewBox="0 0 315 249" fill="none" xmlns="http://www.w3.org/2000/svg">
<g clip-path="url(#clip0)">
<path d="M100.775 44.1484H36.2269C34.2646 44.1484 32.6738 45.7395 32.6738 47.7023V48.3338C32.6738 50.2966 34.2646 51.8877 36.2269 51.8877H100.775C102.738 51.8877 104.328 50.2966 104.328 48.3338V47.7023C104.328 45.7395 102.738 44.1484 100.775 44.1484Z" fill="#E5E5E5"/>
<path d="M116.828 50.7422H52.2802C50.3178 50.7422 48.7271 52.3333 48.7271 54.296V54.9276C48.7271 56.8903 50.3178 58.4814 52.2802 58.4814H116.828C118.791 58.4814 120.382 56.8903 120.382 54.9276V54.296C120.382 52.3333 118.791 50.7422 116.828 50.7422Z" fill="#E5E5E5"/>
<path d="M89.5984 56.4763H25.0502C23.0879 56.4763 21.4971 58.0674 21.4971 60.0302V60.6617C21.4971 62.6245 23.0879 64.2156 25.0502 64.2156H89.5984C91.5608 64.2156 93.1516 62.6245 93.1516 60.6617V60.0302C93.1516 58.0674 91.5608 56.4763 89.5984 56.4763Z" fill="#E5E5E5"/>
<path d="M114.878 145.018H64.0009L38.5623 156.65H140.317L114.878 145.018Z" fill="#3F3D56"/>
<rect x="64.001" y="99.4324" width="50.8774" height="45.5853" fill="#3F3D56"/>
<path d="M89.4397 73.9675C75.3903 73.9675 64.001 85.3685 64.001 99.4324H114.878C114.878 85.3685 103.489 73.9675 89.4397 73.9675Z" fill="#3F3D56"/>
<path d="M86.3221 64.0646L89.252 61.3923H89.5967V76.1683H82.5304V74.282C82.5304 73.8104 83.9092 71.7669 85.1156 71.1382C86.0808 70.6351 86.3221 68.9375 86.3221 68.1515V64.0646Z" fill="#3F3D56"/>
<path d="M92.8713 64.0646L89.9414 61.3923H89.5967V76.1683H96.663V74.282C96.663 73.8104 95.2842 71.7669 94.0777 71.1382C93.1126 70.6351 92.8713 68.9375 92.8713 68.1515V64.0646Z" fill="#3F3D56"/>
<path d="M159 156H20V249H159V156Z" fill="#3F3D56"/>
<path d="M62.4885 160.58L30.4546 173.155V249H94.5224V173.155L62.4885 160.58Z" fill="white"/>
<path d="M39.0503 175.67H10V249.235H250.411V165.924H233.295V177.399H179.277V165.924H161.062V177.399L140.177 170.325H49.1002L39.0503 175.67Z" fill="#E6E6E6"/>
<rect x="24.4467" y="217.325" width="9.10768" height="16.6622" fill="white"/>
<rect x="44.2323" y="217.325" width="9.10767" height="16.6622" fill="white"/>
<rect x="88.5144" y="213.867" width="9.10768" height="16.6622" fill="white"/>
<rect x="88.5144" y="244.677" width="9.10768" height="4.71571" fill="white"/>
<rect x="108.3" y="213.867" width="9.10768" height="16.6622" fill="white"/>
<rect x="108.3" y="244.677" width="9.10768" height="4.71571" fill="white"/>
<rect x="130.284" y="213.867" width="9.10768" height="16.6622" fill="white"/>
<rect x="158.748" y="224.242" width="9.10768" height="20.4348" fill="white"/>
<rect x="130.284" y="244.677" width="9.10768" height="4.71571" fill="white"/>
<path d="M234.258 179.914L163.517 213.553V249.235H305V213.553L234.258 179.914Z" fill="#3F3D56"/>
<path d="M216.5 86L211.642 81.6065C194.39 65.7276 183 55.4214 183 42.583C183 32.1086 191.04 24 201.425 24C204.301 24.0154 207.139 24.658 209.742 25.8833C212.345 27.1086 214.651 28.8872 216.5 31.0956C218.349 28.8871 220.655 27.1085 223.258 25.8832C225.861 24.6579 228.699 24.0153 231.575 24C241.96 24 250 32.1086 250 42.583C250 55.4216 238.61 65.7278 221.358 81.6065L216.5 86Z" fill="white"/>
<path d="M149.433 108.474H84.8849C82.9226 108.474 81.3318 110.065 81.3318 112.028V112.659C81.3318 114.622 82.9226 116.213 84.8849 116.213H149.433C151.395 116.213 152.986 114.622 152.986 112.659V112.028C152.986 110.065 151.395 108.474 149.433 108.474Z" fill="#E5E5E5"/>
<path d="M165.483 115.068H100.934C98.9721 115.068 97.3813 116.659 97.3813 118.621V119.253C97.3813 121.216 98.9721 122.807 100.934 122.807H165.483C167.445 122.807 169.036 121.216 169.036 119.253V118.621C169.036 116.659 167.445 115.068 165.483 115.068Z" fill="#E5E5E5"/>
<path d="M138.253 120.798H73.7045C71.7421 120.798 70.1514 122.389 70.1514 124.352V124.984C70.1514 126.946 71.7421 128.537 73.7045 128.537H138.253C140.215 128.537 141.806 126.946 141.806 124.984V124.352C141.806 122.389 140.215 120.798 138.253 120.798Z" fill="#E5E5E5"/>
<path d="M295.108 38.8882H230.56C228.598 38.8882 227.007 40.4793 227.007 42.442V43.0736C227.007 45.0363 228.598 46.6274 230.56 46.6274H295.108C297.071 46.6274 298.661 45.0363 298.661 43.0736V42.442C298.661 40.4793 297.071 38.8882 295.108 38.8882Z" fill="#E5E5E5"/>
<path d="M311.158 45.4819H246.61C244.647 45.4819 243.057 47.073 243.057 49.0358V49.6673C243.057 51.6301 244.647 53.2212 246.61 53.2212H311.158C313.12 53.2212 314.711 51.6301 314.711 49.6673V49.0358C314.711 47.073 313.12 45.4819 311.158 45.4819Z" fill="#E5E5E5"/>
<path d="M283.928 51.2161H219.38C217.417 51.2161 215.827 52.8072 215.827 54.7699V55.4015C215.827 57.3642 217.417 58.9553 219.38 58.9553H283.928C285.89 58.9553 287.481 57.3642 287.481 55.4015V54.7699C287.481 52.8072 285.89 51.2161 283.928 51.2161Z" fill="#E5E5E5"/>
<path d="M311.995 249.384H0V248.663H312.13L311.995 249.384Z" fill="#2F2E41"/>
<path d="M51.7416 241.341H44.4447C40.6278 241.341 37.2181 241.611 34.9673 243.053C33.9088 241.132 32.3522 239.529 30.4603 238.414C28.5683 237.298 26.4105 236.709 24.2125 236.71H16.9156C15.304 236.71 13.7082 237.027 12.2193 237.642C10.7304 238.257 9.3775 239.158 8.23794 240.295C7.09838 241.431 6.19443 242.781 5.57771 244.266C4.96098 245.751 4.64355 247.342 4.64355 248.95V248.95H64.0136V248.95C64.0136 242.19 58.5193 241.341 51.7416 241.341Z" fill="#2F2E41"/>
<path d="M250.752 249.308H281.92C281.763 243.508 277.408 242.361 269.985 242.361H262.688C255.265 242.361 250.909 243.508 250.752 249.308Z" fill="#2F2E41"/>
</g>
<defs>
<clipPath id="clip0">
<rect width="315" height="249" fill="white"/>
</clipPath>
</defs>
</svg>
