<svg width="315" height="254" viewBox="0 0 315 254" fill="none" xmlns="http://www.w3.org/2000/svg">
<g clip-path="url(#clip0)">
<path d="M244.883 210.71C253.767 210.71 260.97 196.053 260.97 177.973C260.97 159.892 253.767 145.235 244.883 145.235C235.998 145.235 228.795 159.892 228.795 177.973C228.795 196.053 235.998 210.71 244.883 210.71Z" fill="#3F3D56"/>
<path d="M243.397 231.559C249.84 193.004 243.462 154.588 243.397 154.205L242.143 154.416C242.208 154.798 248.55 193.012 242.143 231.351L243.397 231.559Z" fill="#2F2E41"/>
<path d="M230.719 170.933L230.119 172.051L244.667 179.812L245.266 178.693L230.719 170.933Z" fill="#2F2E41"/>
<path d="M260.02 174.821L245.474 182.585L246.074 183.703L260.62 175.938L260.02 174.821Z" fill="#2F2E41"/>
<path d="M283.535 190.191C300.913 190.191 315 161.524 315 126.16C315 90.7969 300.913 62.1292 283.535 62.1292C266.158 62.1292 252.071 90.7969 252.071 126.16C252.071 161.524 266.158 190.191 283.535 190.191Z" fill="#E6E6E6"/>
<path d="M280.031 230.87C292.616 155.56 280.157 80.5238 280.03 79.7747L278.777 79.9864C278.904 80.7337 291.325 155.568 278.777 230.662L280.031 230.87Z" fill="#2F2E41"/>
<path d="M255.547 112.926L254.947 114.044L283.4 129.223L284 128.105L255.547 112.926Z" fill="#2F2E41"/>
<path d="M313.429 120.53L284.98 135.717L285.58 136.834L314.029 121.648L313.429 120.53Z" fill="#2F2E41"/>
<path d="M209.014 175.243C232.793 175.243 252.071 136.014 252.071 87.6216C252.071 39.2295 232.793 0 209.014 0C185.234 0 165.957 39.2295 165.957 87.6216C165.957 136.014 185.234 175.243 209.014 175.243Z" fill="#E6E6E6"/>
<path d="M203.987 230.87C221.202 127.852 204.16 25.2099 203.986 24.1853L202.733 24.397C202.907 25.4198 219.912 127.86 202.733 230.662L203.987 230.87Z" fill="#2F2E41"/>
<path d="M170.603 69.7168L170.003 70.835L208.939 91.6062L209.539 90.4881L170.603 69.7168Z" fill="#2F2E41"/>
<path d="M250.031 80.1223L211.101 100.904L211.7 102.022L250.631 81.2403L250.031 80.1223Z" fill="#2F2E41"/>
<path d="M301.996 231.637H0V230.915H302.127L301.996 231.637Z" fill="#3F3D56"/>
<path d="M51.7416 223.594H44.4447C40.6278 223.594 37.2181 223.863 34.9673 225.305C33.9088 223.384 32.3521 221.782 30.4602 220.666C28.5682 219.55 26.4104 218.962 24.2124 218.962H16.9155C15.3039 218.962 13.7081 219.279 12.2192 219.894C10.7303 220.509 9.37744 221.411 8.23788 222.547C7.09832 223.684 6.19437 225.033 5.57764 226.518C4.96092 228.003 4.64349 229.595 4.64349 231.202V231.202H64.0136V231.202C64.0136 224.442 58.5192 223.594 51.7416 223.594Z" fill="#3F3D56"/>
<path d="M250.752 231.56H281.92C281.763 225.761 277.408 224.614 269.985 224.614H262.688C255.265 224.614 250.909 225.761 250.752 231.56Z" fill="#3F3D56"/>
<path d="M66.2507 144.954L70.4647 146.899L67.5392 153.203C67.2805 153.761 66.8105 154.193 66.2325 154.404C65.6545 154.616 65.0158 154.59 64.457 154.332C63.8982 154.074 63.465 153.605 63.2527 153.029C63.0405 152.453 63.0665 151.816 63.3251 151.258L66.2507 144.954Z" fill="#FFB9B9"/>
<path d="M107.535 56.8411H107.535C112.022 56.8411 116.324 58.6185 119.496 61.7824C122.669 64.9463 124.451 69.2375 124.451 73.7119V92.5675H90.6197V73.7119C90.6197 69.2375 92.4019 64.9463 95.5742 61.7824C98.7464 58.6185 103.049 56.8411 107.535 56.8411Z" fill="#2F2E41"/>
<path d="M94.9315 234.484L91.283 233.822L88.6296 219.267L96.0923 219.43L94.9315 234.484Z" fill="white"/>
<path d="M135.23 242.916L131.489 244.641L125.519 227.439L131.913 226.376L135.23 242.916Z" fill="white"/>
<path d="M133.572 227.369L123.787 227.867L97.0875 163.524L96.3593 221.47L86.9713 220.259C80.3523 184.198 74.8758 152.165 83.4887 132.098L112.676 134.414L133.572 227.369Z" fill="#2F2E41"/>
<path d="M89.0663 244.624L85.2695 244.419C85.1028 244.41 84.9411 244.359 84.7998 244.27C84.6585 244.181 84.5422 244.058 84.462 243.912C84.3817 243.766 84.34 243.602 84.341 243.436C84.3419 243.269 84.3855 243.106 84.4674 242.961L90.2465 232.735L95.3213 233.157L96.1046 236.803C96.2501 237.48 96.2019 238.185 95.9653 238.836C95.7287 239.487 95.3133 240.059 94.7665 240.486L92.278 242.431C92.0591 243.098 91.6258 243.674 91.0451 244.071C90.4645 244.467 89.769 244.661 89.0663 244.624Z" fill="#2F2E41"/>
<path d="M140.798 252.803L137.519 253.928C137.3 254.003 137.066 254.02 136.839 253.977C136.612 253.934 136.4 253.834 136.224 253.685L130.516 248.858C129.988 248.412 129.604 247.821 129.409 247.159C129.215 246.496 129.22 245.792 129.424 245.132L130.14 242.808L135.575 241.759L141.482 250.823C141.592 250.992 141.663 251.185 141.687 251.385C141.712 251.585 141.691 251.789 141.625 251.98C141.559 252.171 141.45 252.344 141.307 252.487C141.164 252.629 140.99 252.738 140.798 252.803Z" fill="#2F2E41"/>
<path d="M105.214 83.305C111.442 83.305 116.491 78.2694 116.491 72.0578C116.491 65.8461 111.442 60.8105 105.214 60.8105C98.9854 60.8105 93.9365 65.8461 93.9365 72.0578C93.9365 78.2694 98.9854 83.305 105.214 83.305Z" fill="white"/>
<path d="M116.656 88.7634L103.389 91.079L102.062 80.4934L112.344 79.1702L116.656 88.7634Z" fill="white"/>
<path d="M116.656 138.053L82.4936 134.745C84.1688 116.566 89.783 100.533 101.399 87.771L117.983 86.4478L116.656 138.053Z" fill="#3F3D56"/>
<path d="M71.0508 148.145L64.0856 145.829L76.1055 121.592L94.1023 92.4022L101.399 87.771L85.2545 123.856L71.0508 148.145Z" fill="#3F3D56"/>
<path d="M112.842 68.4192L92.2781 72.3888L95.5948 62.134L107.535 59.4875L116.822 62.7956L112.842 68.4192Z" fill="#2F2E41"/>
<path d="M70.343 151.69C87.5053 151.69 101.418 137.814 101.418 120.697C101.418 103.58 87.5053 89.7039 70.343 89.7039C53.1808 89.7039 39.268 103.58 39.268 120.697C39.268 137.814 53.1808 151.69 70.343 151.69Z" fill="white"/>
<path d="M106.278 156.108L87.4774 151.205L68.6766 146.301L82.3348 132.514L95.9932 118.727L101.136 137.418L106.278 156.108Z" fill="white"/>
<path d="M70.3812 131.503C76.5388 131.503 81.5305 126.524 81.5305 120.383C81.5305 114.242 76.5388 109.263 70.3812 109.263C64.2237 109.263 59.232 114.242 59.232 120.383C59.232 126.524 64.2237 131.503 70.3812 131.503Z" fill="#3978F2"/>
<path d="M103.398 152.562L107.612 154.507L104.687 160.812C104.428 161.369 103.958 161.801 103.38 162.013C102.802 162.225 102.164 162.199 101.605 161.941C101.046 161.683 100.613 161.214 100.4 160.637C100.188 160.061 100.214 159.424 100.473 158.867L103.398 152.562Z" fill="#FFB9B9"/>
<path d="M107.867 156.745L101.897 153.107L105.027 131.854L117.983 88.1018L120.444 89.0401C122.87 89.9656 124.871 91.7489 126.065 94.0506C127.259 96.3522 127.562 99.0113 126.917 101.522L118.521 134.197L107.867 156.745Z" fill="#3F3D56"/>
</g>
<defs>
<clipPath id="clip0">
<rect width="315" height="254" fill="white"/>
</clipPath>
</defs>
</svg>
