<svg width="315" height="249" viewBox="0 0 315 249" fill="none" xmlns="http://www.w3.org/2000/svg">
<g clip-path="url(#clip0)">
<path d="M315 116.794L124.244 0L61.8904 101.99L252.647 218.784L315 116.794Z" fill="#F2F2F2"/>
<path d="M233.031 36.3635H82.2053V118.978H188.617L189.427 137.407L207.166 126.09L218.313 118.978H233.031V36.3635Z" fill="#3F3D56"/>
<path d="M0 248.651H134.454" stroke="#3F3D56" stroke-width="2" stroke-miterlimit="10"/>
<path d="M157.618 102.734L153.684 99.182C139.711 86.344 130.486 78.0116 130.486 67.6319C130.486 59.1634 136.998 52.6077 145.409 52.6077C147.738 52.6201 150.037 53.1396 152.145 54.1303C154.253 55.1209 156.121 56.5589 157.618 58.3444C159.115 56.5589 160.983 55.1209 163.091 54.1302C165.2 53.1396 167.498 52.62 169.828 52.6077C178.239 52.6077 184.75 59.1634 184.75 67.6319C184.75 78.0117 175.525 86.3442 161.553 99.182L157.618 102.734Z" fill="#3978F2"/>
<path d="M26.2047 131.203C25.9452 129.426 26.1988 127.613 26.9355 125.976C27.6722 124.339 28.8614 122.947 30.3627 121.964C30.6559 112.894 36.8175 105.649 44.3771 105.649C52.1237 105.649 58.4035 113.256 58.4035 122.641C58.4035 132.025 52.1237 139.632 44.3771 139.632C43.647 139.632 42.9186 139.564 42.2012 139.429C41.9445 140.881 41.3506 142.252 40.4674 143.433C39.5842 144.613 38.4363 145.57 37.1162 146.225C35.796 146.881 34.3406 147.217 32.867 147.206C31.3934 147.196 29.9428 146.839 28.6321 146.165C27.3213 145.491 26.1871 144.519 25.3206 143.326C24.4542 142.133 23.8798 140.753 23.6436 139.297C23.4075 137.842 23.5162 136.351 23.961 134.945C24.4058 133.539 25.1744 132.257 26.2047 131.203H26.2047Z" fill="#2F2E41"/>
<path d="M53.0117 126.179C52.9427 126.735 53.0053 127.299 53.1946 127.826C53.5172 128.574 54.3097 129.245 54.0772 130.026C53.9271 130.529 53.3968 130.809 52.8994 130.978C50.5451 131.776 47.9751 131.301 45.4919 131.408C44.6637 131.481 43.8323 131.51 43.0012 131.495C42.1635 131.478 41.353 131.195 40.686 130.688C41.9791 130.058 43.1998 129.29 44.3267 128.396C44.5998 128.194 44.8465 127.958 45.061 127.694C45.5903 126.997 45.6704 126.065 45.699 125.19C45.7272 124.323 45.7247 123.456 45.6914 122.588C47.4686 122.569 49.2458 122.561 51.0231 122.564C51.5927 122.566 53.3356 122.427 53.5343 123.041C53.6341 123.35 53.2517 124.248 53.194 124.594C53.1066 125.119 53.0457 125.648 53.0117 126.179Z" fill="white"/>
<path opacity="0.05" d="M53.0117 126.179C52.9427 126.735 53.0053 127.299 53.1946 127.826C53.5172 128.574 54.3097 129.245 54.0772 130.026C53.9271 130.529 53.3968 130.809 52.8994 130.978C50.5451 131.776 47.9751 131.301 45.4919 131.408C44.6637 131.481 43.8323 131.51 43.0012 131.495C42.1635 131.478 41.353 131.195 40.686 130.688C41.9791 130.058 43.1998 129.29 44.3267 128.396C44.5998 128.194 44.8465 127.958 45.061 127.694C45.5903 126.997 45.6704 126.065 45.699 125.19C45.7272 124.323 45.7247 123.456 45.6914 122.588C47.4686 122.569 49.2458 122.561 51.0231 122.564C51.5927 122.566 53.3356 122.427 53.5343 123.041C53.6341 123.35 53.2517 124.248 53.194 124.594C53.1066 125.119 53.0457 125.648 53.0117 126.179Z" fill="black"/>
<path d="M61.8629 158.437C62.1257 160.417 61.8897 162.431 61.1764 164.297C57.3505 163.895 53.5064 163.693 49.6595 163.69C50.3248 162.802 50.7487 161.757 50.8897 160.656C50.9917 159.625 50.9985 158.586 50.9098 157.553L58.3763 157.527C58.9235 157.504 59.4716 157.545 60.0094 157.649C60.7347 157.819 61.1305 158.301 61.8629 158.437Z" fill="white"/>
<path d="M63.9561 162.534C64.3389 163.164 64.8021 163.74 65.2284 164.341C66.0129 165.475 66.707 166.669 67.3043 167.912C68.0573 169.434 68.7303 171.002 69.6428 172.434C70.155 173.137 70.5929 173.891 70.9497 174.685C71.2061 175.443 71.3343 176.238 71.329 177.038C71.3571 178.103 71.265 179.241 70.6219 180.089C70.3409 180.452 69.9743 180.739 69.555 180.926C69.1357 181.112 68.6768 181.192 68.2193 181.157C67.751 181.131 67.3073 180.939 66.9677 180.615C66.3396 179.969 66.4017 178.934 66.5705 178.049C66.6889 177.428 66.8374 176.776 66.6376 176.177C66.5143 175.88 66.3701 175.592 66.206 175.316C65.9137 174.644 65.7349 173.928 65.6769 173.198C65.4906 171.794 65.2894 170.306 64.3966 169.207C63.9179 168.618 63.2696 168.184 62.7992 167.588C62.5528 167.276 62.3586 166.923 62.0959 166.625C61.722 166.2 61.2053 165.876 60.9899 165.353C60.8876 165.009 60.8219 164.656 60.7938 164.299C60.6525 163.734 60.4462 163.188 60.179 162.671C59.3271 160.713 59.0987 158.551 58.8803 156.427C59.796 156.39 60.7004 156.211 61.5617 155.898C61.315 155.988 63.6959 162.106 63.9561 162.534Z" fill="white"/>
<path opacity="0.05" d="M63.9561 162.534C64.3389 163.164 64.8021 163.74 65.2284 164.341C66.0129 165.475 66.707 166.669 67.3043 167.912C68.0573 169.434 68.7303 171.002 69.6428 172.434C70.155 173.137 70.5929 173.891 70.9497 174.685C71.2061 175.443 71.3343 176.238 71.329 177.038C71.3571 178.103 71.265 179.241 70.6219 180.089C70.3409 180.452 69.9743 180.739 69.555 180.926C69.1357 181.112 68.6768 181.192 68.2193 181.157C67.751 181.131 67.3073 180.939 66.9677 180.615C66.3396 179.969 66.4017 178.934 66.5705 178.049C66.6889 177.428 66.8374 176.776 66.6376 176.177C66.5143 175.88 66.3701 175.592 66.206 175.316C65.9137 174.644 65.7349 173.928 65.6769 173.198C65.4906 171.794 65.2894 170.306 64.3966 169.207C63.9179 168.618 63.2696 168.184 62.7992 167.588C62.5528 167.276 62.3586 166.923 62.0959 166.625C61.722 166.2 61.2053 165.876 60.9899 165.353C60.8876 165.009 60.8219 164.656 60.7938 164.299C60.6525 163.734 60.4462 163.188 60.179 162.671C59.3271 160.713 59.0987 158.551 58.8803 156.427C59.796 156.39 60.7004 156.211 61.5617 155.898C61.315 155.988 63.6959 162.106 63.9561 162.534Z" fill="black"/>
<path d="M49.3602 125.411C52.8258 125.411 55.6352 122.6 55.6352 119.131C55.6352 115.663 52.8258 112.852 49.3602 112.852C45.8946 112.852 43.0852 115.663 43.0852 119.131C43.0852 122.6 45.8946 125.411 49.3602 125.411Z" fill="white"/>
<path d="M61.8728 183.148C63.0557 184.553 63.5174 186.41 63.9442 188.197L65.5113 194.757C66.2006 197.416 66.7359 200.112 67.1145 202.832C67.2993 204.377 67.3765 205.983 66.8604 207.451C66.4309 208.54 65.8059 209.54 65.0163 210.404C63.333 212.424 61.2749 214.099 58.9554 215.336C57.7262 215.975 56.4265 216.465 55.1631 217.032C53.279 217.879 51.478 218.898 49.6801 219.915L42.9137 223.743C41.4623 224.564 39.9948 225.397 38.7863 226.547C37.6637 227.617 36.7987 228.928 36.2567 230.381C36.1641 230.763 35.9572 231.108 35.6635 231.369C35.2777 231.632 34.7576 231.547 34.3109 231.41C32.6704 230.864 31.2542 229.794 30.2796 228.365C29.3051 226.936 28.8262 225.226 28.9162 223.499C33.8882 221.755 38.4779 219.069 42.4342 215.588C45.4543 212.927 48.176 209.756 51.8616 208.14C53.4735 207.433 55.4069 206.894 56.1603 205.302C56.4493 204.562 56.5833 203.771 56.5539 202.976C56.6211 200.79 56.6867 198.582 56.2704 196.435C55.9186 194.62 55.2303 192.89 54.7125 191.115C53.6758 187.561 53.3278 183.849 52.9847 180.163C55.3923 179.876 57.8148 179.732 60.2395 179.734C60.4523 179.707 60.6673 179.764 60.8386 179.893C60.9468 180.03 61.0115 180.196 61.0242 180.369C61.1998 181.328 61.2451 182.403 61.8728 183.148Z" fill="white"/>
<path opacity="0.05" d="M61.8728 183.148C63.0557 184.553 63.5174 186.41 63.9442 188.197L65.5113 194.757C66.2006 197.416 66.7359 200.112 67.1145 202.832C67.2993 204.377 67.3765 205.983 66.8604 207.451C66.4309 208.54 65.8059 209.54 65.0163 210.404C63.333 212.424 61.2749 214.099 58.9554 215.336C57.7262 215.975 56.4265 216.465 55.1631 217.032C53.279 217.879 51.478 218.898 49.6801 219.915L42.9137 223.743C41.4623 224.564 39.9948 225.397 38.7863 226.547C37.6637 227.617 36.7987 228.928 36.2567 230.381C36.1641 230.763 35.9572 231.108 35.6635 231.369C35.2777 231.632 34.7576 231.547 34.3109 231.41C32.6704 230.864 31.2542 229.794 30.2796 228.365C29.3051 226.936 28.8262 225.226 28.9162 223.499C33.8882 221.755 38.4779 219.069 42.4342 215.588C45.4543 212.927 48.176 209.756 51.8616 208.14C53.4735 207.433 55.4069 206.894 56.1603 205.302C56.4493 204.562 56.5833 203.771 56.5539 202.976C56.6211 200.79 56.6867 198.582 56.2704 196.435C55.9186 194.62 55.2303 192.89 54.7125 191.115C53.6758 187.561 53.3278 183.849 52.9847 180.163C55.3923 179.876 57.8148 179.732 60.2395 179.734C60.4523 179.707 60.6673 179.764 60.8386 179.893C60.9468 180.03 61.0115 180.196 61.0242 180.369C61.1998 181.328 61.2451 182.403 61.8728 183.148Z" fill="black"/>
<path d="M26.3642 226.398C27.5786 228.554 28.7923 230.708 30.0055 232.863C30.2879 233.361 30.5702 233.864 30.8028 234.388C31.1978 235.275 31.4487 236.222 31.8935 237.085C32.4173 238.007 33.0486 238.864 33.7742 239.637C34.566 240.551 35.3577 241.464 36.1494 242.376C36.3989 242.705 36.7098 242.982 37.0649 243.192C37.2439 243.294 37.4482 243.343 37.654 243.334C37.8597 243.324 38.0586 243.257 38.2276 243.139C38.3582 243.023 38.4621 242.88 38.5321 242.72C38.7167 242.331 38.8004 241.901 38.7757 241.471C38.7603 241.121 38.6761 240.777 38.5279 240.46C38.3797 240.142 38.1704 239.857 37.912 239.62C37.5835 239.332 37.1645 239.098 37.0224 238.684C36.9624 238.458 36.9492 238.221 36.9837 237.99C37.1516 235.951 37.3214 233.893 37.9249 231.939C38.3752 230.478 39.0729 228.977 38.7388 227.484C38.104 227.292 37.279 227.161 36.8988 227.704C36.1587 228.766 36.1162 228.367 34.9757 228.206C33.848 228.051 32.7683 227.976 31.9342 227.085C30.8287 225.907 30.9228 224.078 31.0852 222.472C29.9188 222.418 28.8077 222.837 27.7502 223.369C27.3793 223.556 27.0157 223.755 26.6576 223.953C26.46 224.047 26.2811 224.177 26.1298 224.335C25.6518 224.899 26.0006 225.754 26.3642 226.398Z" fill="#2F2E41"/>
<path d="M61.408 177.911C61.7987 179.187 62.1059 180.488 62.3278 181.804C62.4337 182.528 62.4878 183.259 62.5419 183.989C60.0643 184.577 57.4934 184.607 54.9473 184.635L44.3338 184.749C44.1 183.319 44.004 181.869 44.0472 180.42C44.195 178.038 45.0944 175.714 44.942 173.332C47.8541 172.813 50.798 172.493 53.7535 172.372C54.2915 172.317 54.8349 172.369 55.3532 172.523C55.8338 172.699 56.2347 173.042 56.6969 173.262C57.736 173.757 59.2957 173.516 60.1785 174.318C60.9853 175.052 61.1205 176.893 61.408 177.911Z" fill="#2F2E41"/>
<path opacity="0.1" d="M61.408 177.911C61.7987 179.187 62.1059 180.488 62.3278 181.804C62.4337 182.528 62.4878 183.259 62.5419 183.989C60.0643 184.577 57.4934 184.607 54.9473 184.635L44.3338 184.749C44.1 183.319 44.004 181.869 44.0472 180.42C44.195 178.038 45.0944 175.714 44.942 173.332C47.8541 172.813 50.798 172.493 53.7535 172.372C54.2915 172.317 54.8349 172.369 55.3532 172.523C55.8338 172.699 56.2347 173.042 56.6969 173.262C57.736 173.757 59.2957 173.516 60.1785 174.318C60.9853 175.052 61.1205 176.893 61.408 177.911Z" fill="black"/>
<path d="M60.8037 181.423C61.6039 185.203 60.7573 189.11 60.5613 192.969C60.421 195.731 60.6164 198.497 60.6957 201.261C60.7431 202.056 60.7069 202.853 60.5879 203.64C60.4386 204.337 60.2279 205.019 59.9581 205.679L59.0046 208.224C58.1092 210.613 57.1968 213.175 58.1087 215.667C58.3522 216.31 58.4006 217.01 58.2478 217.679C56.8812 223.392 58.113 229.459 58.308 235.329C58.2906 235.907 58.3909 236.482 58.6027 237.019C59.0895 238.051 60.2922 238.553 60.9227 239.504C61.6883 240.658 61.4138 242.302 60.511 243.352C59.6083 244.402 58.2072 244.918 56.8276 245.033C55.1018 245.176 53.3732 244.757 51.6816 244.481L51.4938 244.302C51.2805 243.125 51.9267 242.038 52.1281 240.836C52.2232 240.124 52.2654 239.405 52.2546 238.687C52.2662 238.044 52.2926 237.4 52.2492 236.759C52.193 236.106 52.1006 235.458 51.9727 234.815L50.5333 226.828L50.2225 225.103L48.9299 217.93C48.6857 216.575 49.2837 215.059 49.4396 213.69C49.7625 210.857 50.0859 208.011 49.9915 205.161C49.9813 204.379 49.8898 203.6 49.7184 202.836C49.5323 202.13 49.4234 201.406 49.3935 200.676C49.3709 199.796 49.0188 198.932 48.6764 198.068C47.5283 195.173 47.5759 191.968 47.3258 188.863C47.2988 188.205 47.1795 187.553 46.9713 186.928C46.6132 185.98 45.8981 185.221 45.3342 184.38C44.7703 183.539 44.3425 182.489 44.6609 181.527C45.1696 179.991 47.2559 179.499 48.5224 179.051C50.69 178.259 53.0534 178.179 55.2697 178.822C57.2205 179.442 59.0812 180.316 60.8037 181.423Z" fill="white"/>
<path d="M51.1817 247.782C51.263 247.941 51.387 248.074 51.5398 248.166C51.7133 248.237 51.9015 248.264 52.0879 248.246C54.8969 248.187 57.7053 248.127 60.513 248.067C61.5491 248.016 62.5876 248.054 63.6173 248.179C64.4367 248.303 65.2396 248.541 66.0664 248.591C67.9839 248.711 69.8055 247.832 71.5256 246.975C71.7985 246.872 72.0322 246.686 72.1937 246.443C72.3013 246.179 72.306 245.885 72.2066 245.617C72.0552 245.071 71.7251 244.591 71.2691 244.254C71.2137 244.217 71.1565 244.181 71.0974 244.147C70.6245 243.923 70.1136 243.79 69.5914 243.756C67.6351 243.499 65.5773 243.115 64.0934 241.813C63.6653 241.438 63.3017 240.998 62.9049 240.592C62.0668 239.779 61.163 239.038 60.2029 238.374C60.1094 238.284 59.9987 238.215 59.8775 238.169C59.7563 238.124 59.6272 238.104 59.4979 238.11C59.3524 238.151 59.2193 238.228 59.1104 238.333C58.7066 238.619 58.3903 239.012 58.1968 239.467C58.108 239.697 58.1047 239.951 58.1878 240.183C58.2708 240.415 58.4345 240.609 58.649 240.73C58.9775 240.869 59.3337 240.797 59.6308 240.987C59.0236 241.427 58.0861 241.647 57.4032 242.101C56.7286 242.619 55.9718 243.02 55.1645 243.287C54.3432 243.499 53.365 243.353 52.828 242.696C52.5382 242.341 52.171 241.798 51.7779 242.031C51.6442 242.13 51.548 242.272 51.5047 242.433C51.0967 243.387 50.8275 244.395 50.7056 245.425C50.6101 246.242 50.7769 247.067 51.1817 247.782Z" fill="#2F2E41"/>
<path d="M53.4518 159.536C53.9384 159.525 54.4241 159.579 54.8965 159.696C55.3476 159.844 55.7804 160.042 56.1864 160.288L60.7992 162.848C61.1383 163.017 61.4539 163.23 61.7382 163.481C62.4027 164.121 62.5948 165.107 62.6345 166.029C62.789 169.62 61.1698 173.066 60.966 176.655C60.8759 178.256 61.0689 179.86 61.5363 181.394C61.6522 181.774 61.7661 182.24 61.4883 182.524C61.383 182.618 61.259 182.69 61.1243 182.733C59.6637 183.302 58.0743 183.428 56.5115 183.547C52.6872 183.841 48.8291 184.133 45.0279 183.621C44.8373 183.608 44.6517 183.555 44.4834 183.465C44.2662 183.293 44.1055 183.061 44.0223 182.797C43.5425 181.671 43.0718 180.542 42.61 179.408C41.8352 177.506 41.072 175.504 41.2676 173.46C41.5106 170.92 43.1767 168.776 44.1481 166.417C44.4381 165.713 44.6685 164.982 45.0205 164.307C45.4155 163.619 45.8554 162.958 46.3374 162.328C46.7111 161.796 47.0709 160.599 47.527 160.226C48.0849 159.769 49.6593 159.78 50.3655 159.697C51.3898 159.577 52.4207 159.523 53.4518 159.536Z" fill="#2F2E41"/>
<path opacity="0.1" d="M26.3641 226.398C27.5785 228.554 28.7923 230.708 30.0055 232.862C30.2878 233.361 30.5702 233.863 30.8027 234.388C31.1977 235.275 31.4487 236.222 31.8935 237.085C32.4173 238.007 33.0486 238.864 33.7741 239.637C34.5659 240.551 35.3576 241.464 36.1494 242.376C36.3988 242.705 36.7097 242.982 37.0648 243.192C37.2439 243.294 37.4481 243.343 37.6539 243.334C37.8597 243.324 38.0586 243.257 38.2275 243.139C38.3581 243.023 38.462 242.88 38.5321 242.72C38.7166 242.33 38.8004 241.901 38.7757 241.471C37.9098 241.048 37.128 240.471 36.4687 239.768C35.9511 239.145 35.5014 238.469 35.1269 237.751C34.8003 237.177 34.473 236.602 34.1451 236.026C32.4638 233.066 30.7812 230.105 29.0974 227.144C28.4005 225.989 27.9424 224.705 27.7501 223.369C27.3792 223.556 27.0156 223.755 26.6576 223.953C26.4599 224.047 26.2811 224.177 26.1297 224.335C25.6517 224.898 26.0005 225.754 26.3641 226.398Z" fill="black"/>
<path d="M41.8157 129.086C44.8673 129.605 47.9531 129.898 51.0478 129.961C51.8101 129.976 52.7325 129.885 53.0701 129.201C53.228 128.881 53.2182 128.483 53.4392 128.202C53.8546 127.675 54.6892 127.936 55.2869 128.24C56.1219 128.665 56.9972 129.126 57.4962 129.919C57.8232 130.535 58.0347 131.205 58.1201 131.897C58.4097 133.37 58.8531 134.912 59.9704 135.915C60.5508 136.435 61.2787 136.775 61.8368 137.32C62.7375 138.199 63.0882 139.517 63.0907 140.776C63.0932 142.035 62.7894 143.272 62.5645 144.51C61.7378 149.089 61.977 153.797 63.2634 158.268C63.3253 158.426 63.3426 158.597 63.3132 158.764C63.2234 159.086 62.8339 159.2 62.5045 159.254C57.3924 160.097 51.9085 159.297 47.2044 161.47C46.8128 160.503 45.8428 159.953 45.3634 159.027C44.975 158.276 45.0291 157.385 44.9259 156.546C44.6468 154.275 43.1989 152.341 42.3774 150.206C41.6571 148.334 41.4071 146.271 40.3985 144.538C40.0403 143.922 39.5932 143.361 39.2435 142.741C38.395 141.033 37.7957 139.213 37.4639 137.335C37.2603 134.905 38.394 132.564 39.7305 130.525C40.2456 129.74 40.8899 128.929 41.8157 129.086Z" fill="#D0CDE1"/>
<path opacity="0.1" d="M56.6183 137.762C57.2018 137.893 57.5441 138.483 57.816 139.016C57.9991 139.351 58.153 139.7 58.2761 140.062C58.4357 140.672 58.5002 141.303 58.4676 141.933C58.4805 142.333 58.4377 142.733 58.3404 143.121C58.2402 143.512 57.9927 143.849 57.6495 144.062" stroke="black" stroke-miterlimit="10"/>
<path d="M40.6957 191.265L40.0908 189.858C37.9696 184.802 36.552 181.502 37.8024 178.778C38.0313 178.255 38.3626 177.784 38.7767 177.391C39.1908 176.999 39.6793 176.694 40.2133 176.494C40.7473 176.295 41.316 176.204 41.8856 176.228C42.4552 176.252 43.0143 176.39 43.5296 176.634C44.1395 176.918 44.6803 177.332 45.1144 177.846C45.5485 178.361 45.8655 178.964 46.0434 179.613C46.6516 179.325 47.3151 179.173 47.9879 179.167C48.6607 179.161 49.3266 179.302 49.9395 179.58C50.4603 179.812 50.9293 180.147 51.3187 180.564C51.708 180.98 52.0099 181.471 52.2064 182.007C52.4028 182.542 52.4899 183.112 52.4625 183.682C52.4351 184.252 52.2937 184.81 52.0467 185.324C50.7962 188.049 47.3709 189.123 42.1565 190.808L40.6957 191.265Z" fill="#3F3D56"/>
<path d="M48.631 117.952C52.3837 116.993 55.0421 114.712 54.5687 112.858C54.0954 111.005 50.6695 110.28 46.9168 111.24C43.1641 112.2 40.5057 114.48 40.9791 116.334C41.4524 118.187 44.8783 118.912 48.631 117.952Z" fill="#2F2E41"/>
<path d="M44.5933 139.611C44.4201 137.852 43.8168 136.163 42.8367 134.693C42.4543 134.051 41.9094 133.522 41.257 133.158C40.9284 132.982 40.5565 132.904 40.185 132.933C39.8136 132.962 39.4582 133.097 39.1607 133.321C38.7896 133.711 38.5295 134.193 38.4074 134.718C37.5332 136.968 37.1551 139.381 37.2991 141.792C37.3128 143.99 37.33 146.214 37.8851 148.341C38.1998 149.547 38.6845 150.707 38.9251 151.93C39.1658 153.153 39.1366 154.494 38.4815 155.554C37.9521 156.375 37.556 157.275 37.3079 158.22C37.0855 159.357 37.0151 160.518 37.0985 161.674L37.1875 164.849C37.3035 168.989 37.416 173.173 36.5885 177.231C36.211 179.083 35.2633 180.835 35.4802 182.712C35.5873 183.392 35.7816 184.055 36.0583 184.684C36.4129 185.591 36.8415 186.57 37.7096 187.009C38.1319 187.199 38.5891 187.298 39.052 187.301C39.6263 187.33 40.2021 187.305 40.7717 187.226C41.1204 187.178 41.5711 186.944 41.4527 186.612C41.3976 186.5 41.3124 186.405 41.2067 186.338C40.7615 185.98 40.4019 185.527 40.1542 185.011C39.9065 184.496 39.777 183.932 39.7751 183.36C39.782 181.717 40.8499 180.137 40.5168 178.528C40.3103 177.531 39.5753 176.565 39.8852 175.594C40.5847 173.405 40.6697 171.053 41.2657 168.833L41.8499 166.657C42.1975 165.362 42.5451 164.067 42.8313 162.758C43.623 159.133 43.9391 155.42 43.7718 151.713C43.7456 151.135 44.067 150.476 44.1152 149.9C44.1721 149.22 44.1032 148.536 44.1131 147.854C44.1538 145.046 44.8651 142.406 44.5933 139.611Z" fill="white"/>
<path d="M156.44 213.022C157.697 213.022 158.716 212.002 158.716 210.744C158.716 209.486 157.697 208.466 156.44 208.466C155.183 208.466 154.163 209.486 154.163 210.744C154.163 212.002 155.183 213.022 156.44 213.022Z" fill="#F64F3F"/>
<path d="M201.563 248.136H296.656" stroke="#3F3D56" stroke-width="2" stroke-miterlimit="10"/>
<path d="M144.785 248.136H189.72" stroke="#3F3D56" stroke-width="2" stroke-miterlimit="10"/>
<path d="M167.593 248.555V222.617" stroke="#3F3D56" stroke-width="2" stroke-miterlimit="10"/>
<path d="M167.593 226.285C169.617 226.285 171.258 224.643 171.258 222.617C171.258 220.591 169.617 218.949 167.593 218.949C165.569 218.949 163.928 220.591 163.928 222.617C163.928 224.643 165.569 226.285 167.593 226.285Z" fill="#3F3D56"/>
<path d="M167.593 238.603C167.593 238.603 167.069 227.333 156.335 228.643L167.593 238.603Z" fill="#3F3D56"/>
<path d="M255.352 214.369C245.85 228.952 248.453 247.499 248.453 247.499C248.453 247.499 266.463 242.403 275.965 227.82C285.468 213.237 282.864 194.69 282.864 194.69C282.864 194.69 264.854 199.786 255.352 214.369Z" fill="#3F3D56"/>
<path d="M248.403 247.33C248.403 247.33 248.171 247.293 247.746 247.206C247.406 247.138 246.939 247.039 246.368 246.904C241.264 245.699 227.694 241.628 218.823 230.926C207.72 217.524 208.187 198.8 208.187 198.8C208.187 198.8 225.165 201.56 236.352 213.596C236.837 214.113 237.308 214.649 237.767 215.204C247.428 226.865 248.329 242.554 248.4 246.433C248.41 247.014 248.403 247.33 248.403 247.33Z" fill="white"/>
<path d="M241.555 214.369C251.057 228.952 248.453 247.499 248.453 247.499C248.453 247.499 230.444 242.403 220.941 227.82C211.439 213.237 214.043 194.69 214.043 194.69C214.043 194.69 232.053 199.786 241.555 214.369Z" stroke="#3F3D56" stroke-width="2" stroke-miterlimit="10"/>
<path opacity="0.1" d="M248.4 246.433C248.149 246.736 247.928 246.994 247.746 247.206C247.342 247.667 247.113 247.908 247.113 247.908C247.113 247.908 246.835 247.558 246.368 246.903C243.801 243.323 235.545 230.591 236.182 215.883C236.217 215.112 236.273 214.35 236.352 213.595C236.837 214.113 237.308 214.649 237.767 215.204C247.428 226.864 248.329 242.554 248.4 246.433Z" fill="black"/>
<path d="M262.49 216.947C261.739 234.34 248.837 247.908 248.837 247.908C248.837 247.908 237.153 233.277 237.904 215.884C238.655 198.491 251.557 184.922 251.557 184.922C251.557 184.922 263.241 199.554 262.49 216.947Z" fill="white"/>
<path d="M248.837 247.416L251.673 185.632" stroke="#3F3D56" stroke-width="2" stroke-miterlimit="10"/>
</g>
<defs>
<clipPath id="clip0">
<rect width="315" height="249" fill="white"/>
</clipPath>
</defs>
</svg>
