<svg width="315" height="258" viewBox="0 0 315 258" fill="none" xmlns="http://www.w3.org/2000/svg">
<g clip-path="url(#clip0)">
<path opacity="0.1" d="M308.082 257.037C310.744 254.365 307.663 246.94 301.2 240.452C294.738 233.965 287.341 230.872 284.679 233.544C282.018 236.217 285.098 243.642 291.561 250.129C298.023 256.617 305.42 259.71 308.082 257.037Z" fill="#3978F2"/>
<path d="M297.552 246.375C299.573 246.375 301.211 244.222 301.211 241.566C301.211 238.91 299.573 236.756 297.552 236.756C295.531 236.756 293.893 238.91 293.893 241.566C293.893 244.222 295.531 246.375 297.552 246.375Z" fill="#3F3D56"/>
<path d="M297.552 240.498C299.573 240.498 301.211 238.344 301.211 235.688C301.211 233.032 299.573 230.879 297.552 230.879C295.531 230.879 293.893 233.032 293.893 235.688C293.893 238.344 295.531 240.498 297.552 240.498Z" fill="#3F3D56"/>
<path d="M297.552 234.621C299.573 234.621 301.211 232.467 301.211 229.811C301.211 227.155 299.573 225.002 297.552 225.002C295.531 225.002 293.893 227.155 293.893 229.811C293.893 232.467 295.531 234.621 297.552 234.621Z" fill="#3F3D56"/>
<path d="M297.552 228.743C299.573 228.743 301.211 226.59 301.211 223.934C301.211 221.278 299.573 219.124 297.552 219.124C295.531 219.124 293.893 221.278 293.893 223.934C293.893 226.59 295.531 228.743 297.552 228.743Z" fill="#3F3D56"/>
<path d="M297.552 222.866C299.573 222.866 301.211 220.712 301.211 218.056C301.211 215.4 299.573 213.247 297.552 213.247C295.531 213.247 293.893 215.4 293.893 218.056C293.893 220.712 295.531 222.866 297.552 222.866Z" fill="#3F3D56"/>
<path d="M297.552 216.988C299.573 216.988 301.211 214.835 301.211 212.179C301.211 209.523 299.573 207.369 297.552 207.369C295.531 207.369 293.893 209.523 293.893 212.179C293.893 214.835 295.531 216.988 297.552 216.988Z" fill="#3F3D56"/>
<path d="M297.552 211.111C299.573 211.111 301.211 208.957 301.211 206.301C301.211 203.645 299.573 201.492 297.552 201.492C295.531 201.492 293.893 203.645 293.893 206.301C293.893 208.957 295.531 211.111 297.552 211.111Z" fill="#3F3D56"/>
<path d="M311.249 166.08C311.75 165.442 312.206 164.769 312.613 164.067L302.997 162.483L313.397 162.558C314.395 160.379 314.94 158.019 314.998 155.622C315.057 153.225 314.628 150.841 313.738 148.616L299.789 155.883L312.647 146.387C311.443 144.294 309.822 142.473 307.885 141.036C305.948 139.6 303.738 138.58 301.391 138.039C299.044 137.498 296.612 137.448 294.245 137.892C291.878 138.337 289.628 139.266 287.634 140.622C285.641 141.978 283.947 143.732 282.659 145.774C281.371 147.816 280.515 150.102 280.146 152.491C279.776 154.879 279.901 157.319 280.512 159.657C281.123 161.995 282.208 164.181 283.698 166.08C282.918 167.074 282.248 168.149 281.7 169.288L294.18 175.791L280.881 171.307C279.947 174.08 279.717 177.043 280.21 179.928C280.704 182.813 281.906 185.529 283.708 187.83C281.674 190.426 280.41 193.543 280.058 196.826C279.706 200.109 280.281 203.425 281.718 206.395C283.155 209.365 285.396 211.869 288.184 213.621C290.972 215.373 294.195 216.303 297.484 216.303C300.773 216.303 303.996 215.373 306.783 213.621C309.571 211.869 311.812 209.365 313.249 206.395C314.686 203.425 315.261 200.109 314.91 196.826C314.558 193.543 313.293 190.426 311.259 187.83C313.689 184.729 315.01 180.898 315.01 176.952C315.01 173.006 313.689 169.175 311.259 166.073L311.249 166.08Z" fill="white"/>
<path opacity="0.1" d="M279.947 176.959C279.94 180.906 281.262 184.739 283.698 187.837C281.664 190.433 280.399 193.55 280.047 196.833C279.696 200.116 280.271 203.432 281.708 206.402C283.145 209.372 285.386 211.876 288.174 213.628C290.962 215.381 294.184 216.31 297.473 216.31C300.763 216.31 303.985 215.381 306.773 213.628C309.561 211.876 311.802 209.372 313.239 206.402C314.676 203.432 315.251 200.116 314.899 196.833C314.548 193.55 313.283 190.433 311.249 187.837C313.599 184.846 279.947 174.984 279.947 176.959Z" fill="black"/>
<path d="M288.802 0V246.461L205.602 234.822L104.464 255.535L103.649 255.703L23.1766 233.453V19.1692L106.717 0L198.101 19.1692L201.575 18.4332L288.802 0Z" fill="#444053"/>
<path d="M274.822 13.4595V233.977L200.382 223.564L109.889 242.096L109.159 242.244L37.157 222.338V30.609L111.907 13.4595L193.668 30.609L196.778 29.9518L274.822 13.4595Z" fill="white"/>
<path opacity="0.1" d="M205.603 234.822L104.464 255.535L106.718 0L198.101 19.1692L201.576 18.4332L205.603 234.822Z" fill="black"/>
<g opacity="0.3">
<path opacity="0.3" d="M195.503 47.2383L195.543 118.952H225.209V89.5132H276.015L281.983 81.8318" stroke="#444053" stroke-width="3" stroke-miterlimit="10"/>
<path opacity="0.3" d="M30.3372 70.0017H140.645L147.465 66.9209H150.193V136.067H197.93L199.976 142.228V173.378H236.802V211.888" stroke="#444053" stroke-width="3" stroke-miterlimit="10"/>
<path opacity="0.3" d="M164.763 211.888V136.067" stroke="#444053" stroke-width="3" stroke-miterlimit="10"/>
<path opacity="0.3" d="M281.983 191.575H164.763" stroke="#444053" stroke-width="3" stroke-miterlimit="10"/>
<path opacity="0.3" d="M252.624 47.2383V211.888" stroke="#444053" stroke-width="3" stroke-miterlimit="10"/>
<path opacity="0.3" d="M29.9962 177.021H281.983" stroke="#444053" stroke-width="3" stroke-miterlimit="10"/>
<path opacity="0.3" d="M60.6643 211.888V47.2383" stroke="#444053" stroke-width="3" stroke-miterlimit="10"/>
<path opacity="0.3" d="M119.238 47.2383V211.888" stroke="#444053" stroke-width="3" stroke-miterlimit="10"/>
<path opacity="0.3" d="M30.3372 88.8286L225.209 89.5132" stroke="#444053" stroke-width="3" stroke-miterlimit="10"/>
<path opacity="0.3" d="M87.0529 47.5361V211.888" stroke="#444053" stroke-width="3" stroke-miterlimit="10"/>
<path opacity="0.3" d="M29.9962 126.934H119.238L164.763 177.02" stroke="#444053" stroke-width="3" stroke-miterlimit="10"/>
<path opacity="0.3" d="M174.624 47.2383V136.067" stroke="#444053" stroke-width="3" stroke-miterlimit="10"/>
<path opacity="0.3" d="M164.763 151.977H281.983" stroke="#444053" stroke-width="3" stroke-miterlimit="10"/>
</g>
<path d="M199.806 151.3H165.366V136.238L197.93 136.067L199.976 141.886L199.806 151.3Z" fill="#3978F2"/>
<path d="M182.757 73.2537C177.757 73.2537 172.963 75.2473 169.428 78.796C165.893 82.3447 163.907 87.1578 163.907 92.1764C163.907 102.627 182.757 136.58 182.757 136.58C182.757 136.58 201.606 102.641 201.606 92.1764C201.606 87.1578 199.62 82.3447 196.085 78.796C192.55 75.2473 187.756 73.2537 182.757 73.2537ZM182.757 100.248C181.116 100.248 179.513 99.7597 178.149 98.845C176.786 97.9302 175.723 96.63 175.095 95.1089C174.468 93.5877 174.303 91.9138 174.623 90.299C174.943 88.6841 175.733 87.2007 176.893 86.0365C178.053 84.8722 179.53 84.0793 181.139 83.7581C182.747 83.4369 184.415 83.6018 185.93 84.2319C187.445 84.862 188.741 85.929 189.652 87.298C190.563 88.667 191.049 90.2766 191.049 91.9231C191.048 94.1304 190.174 96.247 188.619 97.8074C187.064 99.3679 184.955 100.245 182.757 100.245V100.248Z" fill="#3978F2"/>
<path opacity="0.1" d="M182.757 73.2537C177.757 73.2537 172.963 75.2473 169.428 78.796C165.893 82.3447 163.907 87.1578 163.907 92.1764C163.907 102.627 182.757 136.58 182.757 136.58C182.757 136.58 201.606 102.641 201.606 92.1764C201.606 87.1578 199.62 82.3447 196.085 78.796C192.55 75.2473 187.756 73.2537 182.757 73.2537ZM182.757 100.248C181.116 100.248 179.513 99.7597 178.149 98.845C176.786 97.9302 175.723 96.63 175.095 95.1089C174.468 93.5877 174.303 91.9138 174.623 90.299C174.943 88.6841 175.733 87.2007 176.893 86.0365C178.053 84.8722 179.53 84.0793 181.139 83.7581C182.747 83.4369 184.415 83.6018 185.93 84.2319C187.445 84.862 188.741 85.929 189.652 87.298C190.563 88.667 191.049 90.2766 191.049 91.9231C191.048 94.1304 190.174 96.247 188.619 97.8074C187.064 99.3679 184.955 100.245 182.757 100.245V100.248Z" fill="black"/>
<path d="M182.757 75.9922C177.757 75.9922 172.963 77.9858 169.428 81.5345C165.893 85.0832 163.907 89.8963 163.907 94.9149C163.907 105.366 182.757 139.319 182.757 139.319C182.757 139.319 201.606 105.379 201.606 94.9149C201.606 89.8963 199.62 85.0832 196.085 81.5345C192.55 77.9858 187.756 75.9922 182.757 75.9922ZM182.757 102.987C181.116 102.987 179.513 102.498 178.149 101.584C176.786 100.669 175.723 99.3686 175.095 97.8474C174.468 96.3262 174.303 94.6524 174.623 93.0375C174.943 91.4226 175.733 89.9393 176.893 88.775C178.053 87.6107 179.53 86.8179 181.139 86.4967C182.747 86.1754 184.415 86.3403 185.93 86.9704C187.445 87.6005 188.741 88.6675 189.652 90.0365C190.563 91.4056 191.049 93.0151 191.049 94.6616C191.048 96.8689 190.174 98.9855 188.619 100.546C187.064 102.106 184.955 102.983 182.757 102.983V102.987Z" fill="#3978F2"/>
<path opacity="0.1" d="M176.368 255.387C182.153 252.885 186.011 248.918 184.985 246.525C183.958 244.132 178.436 244.221 172.65 246.722C166.865 249.223 163.007 253.191 164.033 255.583C165.06 257.976 170.582 257.888 176.368 255.387Z" fill="#3978F2"/>
<path d="M174.375 252.503C175.769 252.503 176.898 251.019 176.898 249.189C176.898 247.359 175.769 245.875 174.375 245.875C172.982 245.875 171.852 247.359 171.852 249.189C171.852 251.019 172.982 252.503 174.375 252.503Z" fill="#3F3D56"/>
<path d="M174.375 248.45C175.769 248.45 176.898 246.966 176.898 245.136C176.898 243.306 175.769 241.823 174.375 241.823C172.982 241.823 171.852 243.306 171.852 245.136C171.852 246.966 172.982 248.45 174.375 248.45Z" fill="#3F3D56"/>
<path d="M174.375 244.4C175.769 244.4 176.898 242.917 176.898 241.087C176.898 239.257 175.769 237.773 174.375 237.773C172.982 237.773 171.852 239.257 171.852 241.087C171.852 242.917 172.982 244.4 174.375 244.4Z" fill="#3F3D56"/>
<path d="M174.375 240.351C175.769 240.351 176.898 238.867 176.898 237.037C176.898 235.207 175.769 233.724 174.375 233.724C172.982 233.724 171.852 235.207 171.852 237.037C171.852 238.867 172.982 240.351 174.375 240.351Z" fill="#3F3D56"/>
<path d="M174.375 236.298C175.769 236.298 176.898 234.814 176.898 232.984C176.898 231.154 175.769 229.671 174.375 229.671C172.982 229.671 171.852 231.154 171.852 232.984C171.852 234.814 172.982 236.298 174.375 236.298Z" fill="#3F3D56"/>
<path d="M174.375 232.248C175.769 232.248 176.898 230.765 176.898 228.935C176.898 227.105 175.769 225.621 174.375 225.621C172.982 225.621 171.852 227.105 171.852 228.935C171.852 230.765 172.982 232.248 174.375 232.248Z" fill="#3F3D56"/>
<path d="M174.375 228.199C175.769 228.199 176.898 226.715 176.898 224.885C176.898 223.055 175.769 221.572 174.375 221.572C172.982 221.572 171.852 223.055 171.852 224.885C171.852 226.715 172.982 228.199 174.375 228.199Z" fill="#3F3D56"/>
<path d="M164.933 197.162C164.589 196.727 164.275 196.27 163.992 195.793L170.621 194.697L163.46 194.752C162.774 193.25 162.399 191.624 162.359 189.972C162.319 188.32 162.615 186.677 163.228 185.143L172.844 190.134L163.979 183.589C164.809 182.147 165.926 180.892 167.261 179.903C168.596 178.913 170.119 178.21 171.736 177.838C173.353 177.465 175.03 177.431 176.66 177.738C178.291 178.044 179.842 178.685 181.215 179.619C182.589 180.553 183.756 181.762 184.644 183.169C185.532 184.576 186.121 186.151 186.376 187.797C186.631 189.443 186.545 191.124 186.124 192.735C185.703 194.346 184.956 195.853 183.93 197.162C184.462 197.848 184.919 198.589 185.293 199.373L176.697 203.861L185.87 200.78C186.514 202.691 186.673 204.733 186.333 206.722C185.993 208.71 185.165 210.582 183.923 212.168C185.325 213.957 186.197 216.106 186.44 218.369C186.682 220.632 186.286 222.918 185.295 224.966C184.305 227.013 182.761 228.739 180.839 229.947C178.917 231.155 176.695 231.796 174.428 231.796C172.161 231.796 169.939 231.155 168.017 229.947C166.096 228.739 164.551 227.013 163.561 224.966C162.57 222.918 162.174 220.632 162.416 218.369C162.659 216.106 163.531 213.957 164.933 212.168C163.259 210.031 162.349 207.39 162.349 204.67C162.349 201.951 163.259 199.31 164.933 197.172V197.162Z" fill="white"/>
<path opacity="0.1" d="M186.507 204.648C186.512 207.369 185.601 210.012 183.923 212.148C185.325 213.937 186.197 216.086 186.44 218.349C186.682 220.612 186.286 222.898 185.295 224.945C184.305 226.993 182.761 228.719 180.839 229.927C178.917 231.135 176.695 231.775 174.428 231.775C172.161 231.775 169.939 231.135 168.017 229.927C166.096 228.719 164.551 226.993 163.561 224.945C162.57 222.898 162.174 220.612 162.416 218.349C162.659 216.086 163.531 213.937 164.933 212.148C163.314 210.094 186.507 203.299 186.507 204.648Z" fill="black"/>
<path opacity="0.1" d="M28.1344 249.506C30.7963 246.834 27.7155 239.408 21.2531 232.921C14.7907 226.433 7.39408 223.341 4.73217 226.013C2.07026 228.685 5.15112 236.11 11.6135 242.598C18.0758 249.085 25.4725 252.178 28.1344 249.506Z" fill="#3978F2"/>
<path d="M17.605 238.844C19.6257 238.844 21.2638 236.691 21.2638 234.035C21.2638 231.379 19.6257 229.226 17.605 229.226C15.5844 229.226 13.9463 231.379 13.9463 234.035C13.9463 236.691 15.5844 238.844 17.605 238.844Z" fill="#3F3D56"/>
<path d="M17.605 232.967C19.6257 232.967 21.2638 230.814 21.2638 228.158C21.2638 225.502 19.6257 223.348 17.605 223.348C15.5844 223.348 13.9463 225.502 13.9463 228.158C13.9463 230.814 15.5844 232.967 17.605 232.967Z" fill="#3F3D56"/>
<path d="M17.605 227.09C19.6257 227.09 21.2638 224.937 21.2638 222.28C21.2638 219.624 19.6257 217.471 17.605 217.471C15.5844 217.471 13.9463 219.624 13.9463 222.28C13.9463 224.937 15.5844 227.09 17.605 227.09Z" fill="#3F3D56"/>
<path d="M17.605 221.212C19.6257 221.212 21.2638 219.059 21.2638 216.403C21.2638 213.747 19.6257 211.594 17.605 211.594C15.5844 211.594 13.9463 213.747 13.9463 216.403C13.9463 219.059 15.5844 221.212 17.605 221.212Z" fill="#3F3D56"/>
<path d="M17.605 215.335C19.6257 215.335 21.2638 213.182 21.2638 210.525C21.2638 207.869 19.6257 205.716 17.605 205.716C15.5844 205.716 13.9463 207.869 13.9463 210.525C13.9463 213.182 15.5844 215.335 17.605 215.335Z" fill="#3F3D56"/>
<path d="M17.605 209.457C19.6257 209.457 21.2638 207.304 21.2638 204.648C21.2638 201.992 19.6257 199.839 17.605 199.839C15.5844 199.839 13.9463 201.992 13.9463 204.648C13.9463 207.304 15.5844 209.457 17.605 209.457Z" fill="#3F3D56"/>
<path d="M17.605 203.58C19.6257 203.58 21.2638 201.427 21.2638 198.771C21.2638 196.114 19.6257 193.961 17.605 193.961C15.5844 193.961 13.9463 196.114 13.9463 198.771C13.9463 201.427 15.5844 203.58 17.605 203.58Z" fill="#3F3D56"/>
<path d="M31.3022 158.549C31.8028 157.911 32.2586 157.239 32.6661 156.537L23.0504 154.952L33.4504 155.027C34.4481 152.848 34.9928 150.488 35.0515 148.091C35.1101 145.694 34.6813 143.31 33.7914 141.085L19.8418 148.352L32.7002 138.857C31.4958 136.764 29.8747 134.942 27.9381 133.506C26.0015 132.069 23.7909 131.049 21.4441 130.508C19.0973 129.967 16.6646 129.917 14.2978 130.362C11.931 130.806 9.68083 131.735 7.68751 133.091C5.69419 134.447 4.00051 136.201 2.71206 138.243C1.42362 140.285 0.568041 142.571 0.198684 144.96C-0.170674 147.349 -0.0458914 149.788 0.565244 152.126C1.17638 154.464 2.26077 156.651 3.75079 158.549C2.97133 159.543 2.30136 160.618 1.75263 161.757L14.2326 168.261L0.934271 163.777C0.000515828 166.55 -0.23001 169.512 0.263539 172.397C0.757088 175.282 1.95915 177.998 3.76102 180.3C1.72756 182.895 0.462602 186.012 0.110769 189.295C-0.241065 192.578 0.334426 195.894 1.77145 198.864C3.20847 201.834 5.44902 204.339 8.23693 206.091C11.0248 207.843 14.2476 208.772 17.5367 208.772C20.8259 208.772 24.0486 207.843 26.8365 206.091C29.6244 204.339 31.865 201.834 33.302 198.864C34.739 195.894 35.3145 192.578 34.9627 189.295C34.6109 186.012 33.3459 182.895 31.3124 180.3C33.7421 177.198 35.063 173.367 35.063 169.421C35.063 165.475 33.7421 161.644 31.3124 158.543L31.3022 158.549Z" fill="white"/>
<path opacity="0.1" d="M-9.75501e-05 169.428C-0.00668704 173.375 1.31503 177.208 3.75071 180.307C1.71725 182.902 0.452294 186.019 0.100461 189.302C-0.251373 192.585 0.324118 195.901 1.76114 198.871C3.19816 201.841 5.43871 204.346 8.22662 206.098C11.0145 207.85 14.2373 208.779 17.5264 208.779C20.8155 208.779 24.0383 207.85 26.8262 206.098C29.6141 204.346 31.8547 201.841 33.2917 198.871C34.7287 195.901 35.3042 192.585 34.9524 189.302C34.6005 186.019 33.3356 182.902 31.3021 180.307C33.6515 177.315 -9.75501e-05 167.453 -9.75501e-05 169.428Z" fill="black"/>
</g>
<defs>
<clipPath id="clip0">
<rect width="315" height="258" fill="white"/>
</clipPath>
</defs>
</svg>
